<svg width="49" height="56" viewBox="0 0 49 56" fill="none" xmlns="http://www.w3.org/2000/svg">
<path d="M24.2488 2.00132L1.73325 15.0007V40.9994L24.2488 53.9987L46.7643 40.9994V15.0007L24.2488 2.00132ZM48.4975 42.0001L24.2488 56L0 42.0001V13.9999L24.2488 0L48.4975 13.9999V42.0001Z" fill="white"/>
<path d="M24.2488 10.6676L9.23837 19.3338V36.6663L24.2488 45.3325L39.2591 36.6663V19.3338L24.2488 10.6676ZM40.9924 37.667L24.2488 47.3338L7.50513 37.667V18.3331L24.2488 8.66626L40.9924 18.3331V37.667Z" fill="white"/>
<path d="M47.7567 15.426L24.3579 28.967L23.4895 27.4669L46.8883 13.9259L47.7567 15.426Z" fill="white"/>
<path d="M25.1154 1.13477V9.58435H23.3822V1.13477H25.1154Z" fill="white"/>
<path d="M47.5439 40.4683L46.6682 41.9637L39.0852 37.5222L39.9609 36.0269L47.5439 40.4683Z" fill="white"/>
<path d="M25.1154 45.9824V54.6486H23.3822V45.9824H25.1154Z" fill="white"/>
<path d="M8.87088 37.8472L1.28792 42.2886L0.411987 40.7933L7.99494 36.3518L8.87088 37.8472Z" fill="white"/>
<path d="M25.2217 27.4649L24.359 28.9681L0.201782 15.1021L1.0646 13.599L25.2217 27.4649Z" fill="white"/>
</svg>
